<?xml version="1.0" standalone="no"?>
<!DOCTYPE svg PUBLIC "-//W3C//DTD SVG 20010904//EN"
 "http://www.w3.org/TR/2001/REC-SVG-20010904/DTD/svg10.dtd">
<svg version="1.0" xmlns="http://www.w3.org/2000/svg"
 width="300.000000pt" height="300.000000pt" viewBox="0 0 300.000000 300.000000"
 preserveAspectRatio="xMidYMid meet">
<metadata>
Created by potrace 1.11, written by Peter Selinger 2001-2013
</metadata>
<g transform="translate(0.000000,300.000000) scale(0.100000,-0.100000)"
fill="#000000" stroke="none">
<path d="M0 1500 l0 -1500 1500 0 1500 0 0 1500 0 1500 -1500 0 -1500 0 0
-1500z m2910 0 l0 -1360 -1410 0 -1410 0 0 1360 0 1360 1410 0 1410 0 0 -1360z"/>
<path d="M100 1500 l0 -1350 1400 0 1400 0 0 1350 0 1350 -1400 0 -1400 0 0
-1350z m656 497 c23 -20 28 -34 32 -85 3 -47 0 -68 -13 -88 -18 -28 -70 -54
-110 -54 -23 0 -25 -4 -25 -45 0 -41 -2 -45 -25 -45 l-25 0 0 170 0 170 69 0
c59 0 74 -4 97 -23z m434 -2 c0 -24 -2 -25 -65 -25 l-65 0 0 -45 0 -45 55 0
c52 0 55 -1 55 -25 0 -24 -3 -25 -55 -25 l-55 0 0 -50 0 -50 65 0 c63 0 65 -1
65 -25 0 -25 -1 -25 -90 -25 l-90 0 0 170 0 170 90 0 c89 0 90 0 90 -25z m400
1 c0 -21 -5 -25 -37 -28 l-38 -3 -3 -142 c-2 -134 -4 -143 -22 -143 -18 0 -20
9 -22 143 l-3 142 -37 3 c-33 3 -38 7 -38 28 0 24 1 24 100 24 99 0 100 0 100
-24z m380 -1 c0 -24 -3 -25 -60 -25 l-60 0 0 -45 0 -45 55 0 c52 0 55 -1 55
-25 0 -24 -3 -25 -55 -25 l-55 0 0 -50 0 -50 65 0 c63 0 65 -1 65 -25 0 -25
-1 -25 -90 -25 l-90 0 0 170 0 170 85 0 c84 0 85 0 85 -25z m401 -4 c26 -26
29 -37 29 -89 0 -44 -5 -66 -20 -85 -25 -31 -25 -27 4 -87 l24 -50 -24 0 c-18
0 -29 11 -49 50 -22 43 -29 50 -55 50 -29 0 -30 -1 -30 -50 0 -43 -3 -50 -20
-50 -19 0 -20 7 -20 170 l0 170 66 0 c59 0 68 -3 95 -29z m69 -511 c0 -7 -320
-10 -940 -10 -620 0 -940 3 -940 10 0 7 320 10 940 10 620 0 940 -3 940 -10z
m-1662 -194 c19 -19 20 -24 9 -40 -12 -17 -14 -17 -43 0 -65 37 -118 -11 -118
-108 -1 -42 5 -64 20 -85 26 -35 77 -43 105 -17 14 12 23 14 30 7 19 -19 5
-48 -33 -66 -50 -24 -92 -12 -132 37 -27 33 -31 47 -34 110 -3 58 0 81 16 112
20 40 45 67 72 77 27 11 84 -4 108 -27z m1338 -10 c63 -67 64 -201 3 -271 -53
-60 -131 -52 -177 17 -23 36 -27 52 -27 117 0 63 4 83 24 115 45 73 121 82
177 22z m-1122 7 c4 -16 24 -82 45 -148 21 -66 42 -130 45 -142 6 -20 4 -23
-17 -23 -19 0 -26 8 -36 40 l-12 40 -58 0 -59 0 -9 -37 c-6 -28 -14 -39 -31
-41 -12 -2 -22 2 -22 8 0 7 23 84 51 171 46 145 52 159 74 159 17 0 25 -7 29
-27z m196 -85 c50 -169 40 -174 105 55 14 48 20 57 39 57 23 0 22 -1 -27 -170
-46 -155 -53 -170 -73 -170 -24 0 -19 -14 -95 240 -11 36 -22 73 -25 83 -4 13
0 17 19 17 22 0 27 -9 57 -112z m344 95 c27 -92 90 -301 93 -310 3 -8 -4 -13
-20 -13 -21 0 -27 6 -34 38 l-9 37 -60 3 -60 3 -10 -38 c-7 -28 -15 -39 -31
-41 -28 -4 -28 -1 -4 74 11 32 33 105 51 162 28 92 33 102 55 102 14 0 26 -7
29 -17z m206 -128 l0 -145 60 0 c57 0 60 -1 60 -25 0 -25 -1 -25 -80 -25 l-80
0 0 170 c0 163 1 170 20 170 19 0 20 -7 20 -145z m670 121 c0 -21 -5 -25 -37
-28 l-38 -3 -3 -142 c-2 -135 -4 -143 -22 -143 -19 0 -20 7 -20 145 l0 145
-40 0 c-36 0 -40 3 -40 25 l0 25 100 0 c99 0 100 0 100 -24z"/>
<path d="M648 1964 c-5 -4 -8 -36 -8 -71 l0 -63 35 0 c50 0 79 31 71 78 -3 19
-9 39 -14 44 -12 12 -75 21 -84 12z"/>
<path d="M2250 1901 l0 -71 39 0 c45 0 71 26 71 70 0 40 -21 61 -68 67 l-42 6
0 -72z"/>
<path d="M1999 1247 c-27 -21 -39 -54 -39 -111 0 -107 85 -155 137 -77 64 95
-17 250 -98 188z"/>
<path d="M956 1218 c-3 -7 -11 -35 -20 -62 -9 -27 -16 -51 -16 -53 0 -2 18 -3
41 -3 40 0 41 1 35 28 -25 102 -32 117 -40 90z"/>
<path d="M1485 1185 c-10 -33 -20 -66 -22 -72 -4 -9 7 -13 36 -13 48 0 49 6
22 90 l-18 55 -18 -60z"/>
</g>
</svg>
